<svg baseProfile="full" width="300" height="300" viewBox="0 0 300 300" version="1.1"
xmlns="http://www.w3.org/2000/svg" xmlns:ev="http://www.w3.org/2001/xml-events"
xmlns:xlink="http://www.w3.org/1999/xlink">

<style>rect.s{mask:url(#mask);}</style>
<defs>
  <pattern id="white" width="4" height="4" patternUnits="userSpaceOnUse" patternTransform="rotate(45)">
    <rect width="2" height="2" transform="translate(0,0)" fill="white"></rect>
  </pattern>
  <mask id="mask">
    <rect x="0" y="0" width="100%" height="100%" fill="url(#white)"></rect>
  </mask>
</defs>

<circle cx="150.0" cy="150.0" fill="#97ca00" r="49.875" stroke="white" stroke-width="1" />
<path d="M 150.0 199.875 L 150.0 249.75 A 99.75 99.75 0 0 0 153.752095083 249.679407515 L 151.876047541 199.839703757 A 49.875 49.875 0 0 1 150.0 199.875 z" fill="#4c1" stroke="white" stroke-width="1" />
<path d="M 151.876047541 199.839703757 L 153.752095083 249.679407515 A 99.75 99.75 0 0 0 196.036304999 238.49136185 L 173.018152499 194.245680925 A 49.875 49.875 0 0 1 151.876047541 199.839703757 z" fill="#63cc0a" stroke="white" stroke-width="1" />
<path d="M 173.018152499 194.245680925 L 196.036304999 238.49136185 A 99.75 99.75 0 0 0 242.423976164 187.52160884 L 196.211988082 168.76080442 A 49.875 49.875 0 0 1 173.018152499 194.245680925 z" fill="#4c1" stroke="white" stroke-width="1" />
<path d="M 196.211988082 168.76080442 L 242.423976164 187.52160884 A 99.75 99.75 0 0 0 247.004840281 126.759443595 L 198.502420141 138.379721798 A 49.875 49.875 0 0 1 196.211988082 168.76080442 z" fill="#4c1" stroke="white" stroke-width="1" />
<path d="M 198.502420141 138.379721798 L 247.004840281 126.759443595 A 99.75 99.75 0 0 0 246.310510177 124.031786172 L 198.155255089 137.015893086 A 49.875 49.875 0 0 1 198.502420141 138.379721798 z" fill="#e05d44" stroke="white" stroke-width="1" />
<path d="M 198.155255089 137.015893086 L 246.310510177 124.031786172 A 99.75 99.75 0 0 0 213.235389583 72.8550195784 L 181.617694792 111.427509789 A 49.875 49.875 0 0 1 198.155255089 137.015893086 z" fill="#4c1" stroke="white" stroke-width="1" />
<path d="M 181.617694792 111.427509789 L 213.235389583 72.8550195784 A 99.75 99.75 0 0 0 166.807843201 51.676254613 L 158.403921601 100.838127307 A 49.875 49.875 0 0 1 181.617694792 111.427509789 z" fill="#4c1" stroke="white" stroke-width="1" />
<path d="M 158.403921601 100.838127307 L 166.807843201 51.676254613 A 99.75 99.75 0 0 0 100.667673081 63.3029180377 L 125.333836541 106.651459019 A 49.875 49.875 0 0 1 158.403921601 100.838127307 z" fill="#4c1" stroke="white" stroke-width="1" />
<path d="M 125.333836541 106.651459019 L 100.667673081 63.3029180377 A 99.75 99.75 0 0 0 133.192156799 248.323745387 L 141.596078399 199.161872693 A 49.875 49.875 0 0 1 125.333836541 106.651459019 z" fill="#b2ac1c" stroke="white" stroke-width="1" />
<path d="M 100.667673081 63.3029180377 L 76.0015096219 19.9543770565 A 149.625 149.625 0 0 0 7.10166339103 105.641167515 L 54.7344422607 120.42744501 A 99.75 99.75 0 0 1 100.667673081 63.3029180377 z" fill="#8aca02" stroke="white" stroke-width="1" />
<path d="M 54.7344422607 120.42744501 L 7.10166339103 105.641167515 A 149.625 149.625 0 0 0 56.2395300729 266.604523515 L 87.4930200486 227.73634901 A 99.75 99.75 0 0 1 54.7344422607 120.42744501 z" fill="#d9b318" stroke="white" stroke-width="1" />
<path d="M 87.4930200486 227.73634901 L 56.2395300729 266.604523515 A 149.625 149.625 0 0 0 116.509323656 295.828718787 L 127.672882437 247.219145858 A 99.75 99.75 0 0 1 87.4930200486 227.73634901 z" fill="#d3b319" stroke="white" stroke-width="1" />
<path d="M 127.672882437 247.219145858 L 116.509323656 295.828718787 A 149.625 149.625 0 0 0 124.788235198 297.48561808 L 133.192156799 248.323745387 A 99.75 99.75 0 0 1 127.672882437 247.219145858 z" fill="#d3b319" stroke="white" stroke-width="1" />
<path d="M 141.596078399 199.161872693 L 133.192156799 248.323745387 A 99.75 99.75 0 0 0 134.117716479 248.477487631 L 142.058858239 199.238743816 A 49.875 49.875 0 0 1 141.596078399 199.161872693 z" fill="#4c1" stroke="white" stroke-width="1" />
<path d="M 142.058858239 199.238743816 L 134.117716479 248.477487631 A 99.75 99.75 0 0 0 150.0 249.75 L 150.0 199.875 A 49.875 49.875 0 0 1 142.058858239 199.238743816 z" fill="#4c1" stroke="white" stroke-width="1" />
</svg>