<svg baseProfile="full" width="300" height="300" viewBox="0 0 300 300" version="1.1"
xmlns="http://www.w3.org/2000/svg" xmlns:ev="http://www.w3.org/2001/xml-events"
xmlns:xlink="http://www.w3.org/1999/xlink">

<style>rect.s{mask:url(#mask);}</style>
<defs>
  <pattern id="white" width="4" height="4" patternUnits="userSpaceOnUse" patternTransform="rotate(45)">
    <rect width="2" height="2" transform="translate(0,0)" fill="white"></rect>
  </pattern>
  <mask id="mask">
    <rect x="0" y="0" width="100%" height="100%" fill="url(#white)"></rect>
  </mask>
</defs>

<circle cx="150.0" cy="150.0" fill="#9bc405" r="19.95" stroke="white" stroke-width="1" />
<path d="M 150.0 169.95 L 150.0 189.9 A 39.9 39.9 0 1 0 147.855250215 189.842314797 L 148.927625108 169.921157398 A 19.95 19.95 0 1 1 150.0 169.95 z" fill="#98c802" stroke="white" stroke-width="1" />
<path d="M 150.0 189.9 L 150.0 209.85 A 59.85 59.85 0 0 0 183.376221 199.679476363 L 172.250814 183.119650909 A 39.9 39.9 0 0 1 150.0 189.9 z" fill="#4c1" stroke="white" stroke-width="1" />
<path d="M 150.0 209.85 L 150.0 229.8 A 79.8 79.8 0 0 0 155.717188334 229.594935502 L 154.287891251 209.696201626 A 59.85 59.85 0 0 1 150.0 209.85 z" fill="#4c1" stroke="white" stroke-width="1" />
<path d="M 154.287891251 209.696201626 L 155.717188334 229.594935502 A 79.8 79.8 0 0 0 161.404993402 228.980795929 L 158.553745051 209.235596946 A 59.85 59.85 0 0 1 154.287891251 209.696201626 z" fill="#4c1" stroke="white" stroke-width="1" />
<path d="M 158.553745051 209.235596946 L 161.404993402 228.980795929 A 79.8 79.8 0 0 0 167.034182949 227.960737626 L 162.775637212 208.47055322 A 59.85 59.85 0 0 1 158.553745051 209.235596946 z" fill="#4c1" stroke="white" stroke-width="1" />
<path d="M 162.775637212 208.47055322 L 167.034182949 227.960737626 A 79.8 79.8 0 0 0 171.200189338 226.932385716 L 165.900142004 207.699289287 A 59.85 59.85 0 0 1 162.775637212 208.47055322 z" fill="#4c1" stroke="white" stroke-width="1" />
<path d="M 165.900142004 207.699289287 L 171.200189338 226.932385716 A 79.8 79.8 0 0 0 176.657451644 225.215824611 L 169.993088733 206.411868458 A 59.85 59.85 0 0 1 165.900142004 207.699289287 z" fill="#4c1" stroke="white" stroke-width="1" />
<path d="M 169.993088733 206.411868458 L 176.657451644 225.215824611 A 79.8 79.8 0 0 0 189.641624646 219.257357699 L 179.731218485 201.943018274 A 59.85 59.85 0 0 1 169.993088733 206.411868458 z" fill="#4c1" stroke="white" stroke-width="1" />
<path d="M 176.657451644 225.215824611 L 183.321814555 244.019780763 A 99.75 99.75 0 0 0 189.151389296 241.745469731 L 181.321111437 223.396375785 A 79.8 79.8 0 0 1 176.657451644 225.215824611 z" fill="#4c1" stroke="white" stroke-width="1" />
<path d="M 181.321111437 223.396375785 L 189.151389296 241.745469731 A 99.75 99.75 0 0 0 194.026392319 239.50831961 L 185.221113855 221.606655688 A 79.8 79.8 0 0 1 181.321111437 223.396375785 z" fill="#4c1" stroke="white" stroke-width="1" />
<path d="M 185.221113855 221.606655688 L 194.026392319 239.50831961 A 99.75 99.75 0 0 0 199.552030808 236.571697123 L 189.641624646 219.257357699 A 79.8 79.8 0 0 1 185.221113855 221.606655688 z" fill="#4c1" stroke="white" stroke-width="1" />
<path d="M 179.731218485 201.943018274 L 189.641624646 219.257357699 A 79.8 79.8 0 0 0 194.501628 216.239301818 L 183.376221 199.679476363 A 59.85 59.85 0 0 1 179.731218485 201.943018274 z" fill="#4c1" stroke="white" stroke-width="1" />
<path d="M 172.250814 183.119650909 L 183.376221 199.679476363 A 59.85 59.85 0 0 0 206.803573249 131.148565938 L 187.869048832 137.432377292 A 39.9 39.9 0 0 1 172.250814 183.119650909 z" fill="#57cc0c" stroke="white" stroke-width="1" />
<path d="M 183.376221 199.679476363 L 194.501628 216.239301818 A 79.8 79.8 0 0 0 212.77055712 199.273696419 L 197.07791784 186.955272315 A 59.85 59.85 0 0 1 183.376221 199.679476363 z" fill="#4c1" stroke="white" stroke-width="1" />
<path d="M 194.501628 216.239301818 L 205.627035 232.799127272 A 99.75 99.75 0 0 0 206.366933606 232.297213172 L 195.093546885 215.837770537 A 79.8 79.8 0 0 1 194.501628 216.239301818 z" fill="#4c1" stroke="white" stroke-width="1" />
<path d="M 195.093546885 215.837770537 L 206.366933606 232.297213172 A 99.75 99.75 0 0 0 222.635006354 218.36825544 L 208.108005083 204.694604352 A 79.8 79.8 0 0 1 195.093546885 215.837770537 z" fill="#4c1" stroke="white" stroke-width="1" />
<path d="M 208.108005083 204.694604352 L 222.635006354 218.36825544 A 99.75 99.75 0 0 0 228.4631964 211.592120524 L 212.77055712 199.273696419 A 79.8 79.8 0 0 1 208.108005083 204.694604352 z" fill="#4c1" stroke="white" stroke-width="1" />
<path d="M 197.07791784 186.955272315 L 212.77055712 199.273696419 A 79.8 79.8 0 0 0 222.150287014 184.093636999 L 204.112715261 175.570227749 A 59.85 59.85 0 0 1 197.07791784 186.955272315 z" fill="#4c1" stroke="white" stroke-width="1" />
<path d="M 212.77055712 199.273696419 L 228.4631964 211.592120524 A 99.75 99.75 0 0 0 229.012098144 210.886376529 L 213.209678515 198.709101223 A 79.8 79.8 0 0 1 212.77055712 199.273696419 z" fill="#4c1" stroke="white" stroke-width="1" />
<path d="M 213.209678515 198.709101223 L 229.012098144 210.886376529 A 99.75 99.75 0 0 0 237.766670654 197.403312356 L 220.213336523 187.922649885 A 79.8 79.8 0 0 1 213.209678515 198.709101223 z" fill="#4c1" stroke="white" stroke-width="1" />
<path d="M 220.213336523 187.922649885 L 237.766670654 197.403312356 A 99.75 99.75 0 0 0 240.187858768 192.617046248 L 222.150287014 184.093636999 A 79.8 79.8 0 0 1 220.213336523 187.922649885 z" fill="#4c1" stroke="white" stroke-width="1" />
<path d="M 204.112715261 175.570227749 L 222.150287014 184.093636999 A 79.8 79.8 0 0 0 227.073162094 170.682545416 L 207.80487157 165.511909062 A 59.85 59.85 0 0 1 204.112715261 175.570227749 z" fill="#a3b114" stroke="white" stroke-width="1" />
<path d="M 222.150287014 184.093636999 L 240.187858768 192.617046248 A 99.75 99.75 0 0 0 240.56621492 191.806975675 L 222.452971936 183.44558054 A 79.8 79.8 0 0 1 222.150287014 184.093636999 z" fill="#4c1" stroke="white" stroke-width="1" />
<path d="M 222.452971936 183.44558054 L 240.56621492 191.806975675 A 99.75 99.75 0 0 0 243.640550989 184.373095737 L 224.912440791 177.498476589 A 79.8 79.8 0 0 1 222.452971936 183.44558054 z" fill="#4c1" stroke="white" stroke-width="1" />
<path d="M 224.912440791 177.498476589 L 243.640550989 184.373095737 A 99.75 99.75 0 0 0 246.341452617 175.85318177 L 227.073162094 170.682545416 A 79.8 79.8 0 0 1 224.912440791 177.498476589 z" fill="#efa41b" stroke="white" stroke-width="1" />
<path d="M 207.80487157 165.511909062 L 227.073162094 170.682545416 A 79.8 79.8 0 0 0 229.581924644 155.895529655 L 209.686443483 154.421647242 A 59.85 59.85 0 0 1 207.80487157 165.511909062 z" fill="#4c1" stroke="white" stroke-width="1" />
<path d="M 227.073162094 170.682545416 L 246.341452617 175.85318177 A 99.75 99.75 0 0 0 246.569306155 174.988629587 L 227.255444924 169.99090367 A 79.8 79.8 0 0 1 227.073162094 170.682545416 z" fill="#4c1" stroke="white" stroke-width="1" />
<path d="M 227.255444924 169.99090367 L 246.569306155 174.988629587 A 99.75 99.75 0 0 0 248.693801783 164.477430355 L 228.955041426 161.581944284 A 79.8 79.8 0 0 1 227.255444924 169.99090367 z" fill="#4c1" stroke="white" stroke-width="1" />
<path d="M 228.955041426 161.581944284 L 248.693801783 164.477430355 A 99.75 99.75 0 0 0 249.477405805 157.369412069 L 229.581924644 155.895529655 A 79.8 79.8 0 0 1 228.955041426 161.581944284 z" fill="#4c1" stroke="white" stroke-width="1" />
<path d="M 209.686443483 154.421647242 L 229.581924644 155.895529655 A 79.8 79.8 0 0 0 229.194725727 140.190034807 L 209.396044295 142.642526105 A 59.85 59.85 0 0 1 209.686443483 154.421647242 z" fill="#4c1" stroke="white" stroke-width="1" />
<path d="M 229.581924644 155.895529655 L 249.477405805 157.369412069 A 99.75 99.75 0 0 0 249.539462341 156.477494642 L 229.631569873 155.181995713 A 79.8 79.8 0 0 1 229.581924644 155.895529655 z" fill="#4c1" stroke="white" stroke-width="1" />
<path d="M 229.631569873 155.181995713 L 249.539462341 156.477494642 A 99.75 99.75 0 0 0 249.509433376 143.076477117 L 229.607546701 144.461181693 A 79.8 79.8 0 0 1 229.631569873 155.181995713 z" fill="#4c1" stroke="white" stroke-width="1" />
<path d="M 229.607546701 144.461181693 L 249.509433376 143.076477117 A 99.75 99.75 0 0 0 248.993407158 137.737543508 L 229.194725727 140.190034807 A 79.8 79.8 0 0 1 229.607546701 144.461181693 z" fill="#4c1" stroke="white" stroke-width="1" />
<path d="M 209.396044295 142.642526105 L 229.194725727 140.190034807 A 79.8 79.8 0 0 0 225.738097665 124.864754584 L 206.803573249 131.148565938 A 59.85 59.85 0 0 1 209.396044295 142.642526105 z" fill="#4c1" stroke="white" stroke-width="1" />
<path d="M 229.194725727 140.190034807 L 248.993407158 137.737543508 A 99.75 99.75 0 0 0 248.879521629 136.850752779 L 229.103617303 139.480602223 A 79.8 79.8 0 0 1 229.194725727 140.190034807 z" fill="#4c1" stroke="white" stroke-width="1" />
<path d="M 229.103617303 139.480602223 L 248.879521629 136.850752779 A 99.75 99.75 0 0 0 246.224622226 123.715316676 L 226.979697781 128.972253341 A 79.8 79.8 0 0 1 229.103617303 139.480602223 z" fill="#4c1" stroke="white" stroke-width="1" />
<path d="M 226.979697781 128.972253341 L 246.224622226 123.715316676 A 99.75 99.75 0 0 0 244.672622081 118.58094323 L 225.738097665 124.864754584 A 79.8 79.8 0 0 1 226.979697781 128.972253341 z" fill="#4c1" stroke="white" stroke-width="1" />
<path d="M 187.869048832 137.432377292 L 206.803573249 131.148565938 A 59.85 59.85 0 0 0 190.727060492 106.144224511 L 177.151373661 120.762816341 A 39.9 39.9 0 0 1 187.869048832 137.432377292 z" fill="#4c1" stroke="white" stroke-width="1" />
<path d="M 206.803573249 131.148565938 L 225.738097665 124.864754584 A 79.8 79.8 0 0 0 216.733728777 106.243292588 L 200.050296583 117.182469441 A 59.85 59.85 0 0 1 206.803573249 131.148565938 z" fill="#4c1" stroke="white" stroke-width="1" />
<path d="M 225.738097665 124.864754584 L 244.672622081 118.58094323 A 99.75 99.75 0 0 0 233.417160971 95.3041157354 L 216.733728777 106.243292588 A 79.8 79.8 0 0 1 225.738097665 124.864754584 z" fill="#4c1" stroke="white" stroke-width="1" />
<path d="M 200.050296583 117.182469441 L 216.733728777 106.243292588 A 79.8 79.8 0 0 0 204.302747322 91.5256326819 L 190.727060492 106.144224511 A 59.85 59.85 0 0 1 200.050296583 117.182469441 z" fill="#4c1" stroke="white" stroke-width="1" />
<path d="M 216.733728777 106.243292588 L 233.417160971 95.3041157354 A 99.75 99.75 0 0 0 217.878434153 76.9070408524 L 204.302747322 91.5256326819 A 79.8 79.8 0 0 1 216.733728777 106.243292588 z" fill="#4c1" stroke="white" stroke-width="1" />
<path d="M 177.151373661 120.762816341 L 190.727060492 106.144224511 A 59.85 59.85 0 1 0 146.782875323 209.763472195 L 147.855250215 189.842314797 A 39.9 39.9 0 1 1 177.151373661 120.762816341 z" fill="#a3b313" stroke="white" stroke-width="1" />
<path d="M 190.727060492 106.144224511 L 204.302747322 91.5256326819 A 79.8 79.8 0 0 0 158.210947274 70.6235529589 L 156.158210455 90.4676647192 A 59.85 59.85 0 0 1 190.727060492 106.144224511 z" fill="#4c1" stroke="white" stroke-width="1" />
<path d="M 204.302747322 91.5256326819 L 217.878434153 76.9070408524 A 99.75 99.75 0 0 0 207.46827228 68.4680419644 L 195.974617824 84.7744335716 A 79.8 79.8 0 0 1 204.302747322 91.5256326819 z" fill="#4c1" stroke="white" stroke-width="1" />
<path d="M 217.878434153 76.9070408524 L 231.454120983 62.2884490229 A 119.7 119.7 0 0 0 218.961926736 52.1616503573 L 207.46827228 68.4680419644 A 99.75 99.75 0 0 1 217.878434153 76.9070408524 z" fill="#4c1" stroke="white" stroke-width="1" />
<path d="M 195.974617824 84.7744335716 L 207.46827228 68.4680419644 A 99.75 99.75 0 0 0 192.009810742 59.5276931796 L 183.607848594 77.6221545437 A 79.8 79.8 0 0 1 195.974617824 84.7744335716 z" fill="#4c1" stroke="white" stroke-width="1" />
<path d="M 207.46827228 68.4680419644 L 218.961926736 52.1616503573 A 119.7 119.7 0 0 0 200.411772891 41.4332318155 L 192.009810742 59.5276931796 A 99.75 99.75 0 0 1 207.46827228 68.4680419644 z" fill="#4c1" stroke="white" stroke-width="1" />
<path d="M 183.607848594 77.6221545437 L 192.009810742 59.5276931796 A 99.75 99.75 0 0 0 189.562160076 58.4309113834 L 181.649728061 76.7447291067 A 79.8 79.8 0 0 1 183.607848594 77.6221545437 z" fill="#4c1" stroke="white" stroke-width="1" />
<path d="M 192.009810742 59.5276931796 L 200.411772891 41.4332318155 A 119.7 119.7 0 0 0 197.474592092 40.11709366 L 189.562160076 58.4309113834 A 99.75 99.75 0 0 1 192.009810742 59.5276931796 z" fill="#4c1" stroke="white" stroke-width="1" />
<path d="M 181.649728061 76.7447291067 L 189.562160076 58.4309113834 A 99.75 99.75 0 0 0 187.085905854 57.4003343042 L 179.668724683 75.9202674433 A 79.8 79.8 0 0 1 181.649728061 76.7447291067 z" fill="#4c1" stroke="white" stroke-width="1" />
<path d="M 189.562160076 58.4309113834 L 197.474592092 40.11709366 A 119.7 119.7 0 0 0 194.503087025 38.880401165 L 187.085905854 57.4003343042 A 99.75 99.75 0 0 1 189.562160076 58.4309113834 z" fill="#4c1" stroke="white" stroke-width="1" />
<path d="M 179.668724683 75.9202674433 L 187.085905854 57.4003343042 A 99.75 99.75 0 0 0 182.900123488 55.8318292922 L 176.320098791 74.6654634337 A 79.8 79.8 0 0 1 179.668724683 75.9202674433 z" fill="#4c1" stroke="white" stroke-width="1" />
<path d="M 187.085905854 57.4003343042 L 194.503087025 38.880401165 A 119.7 119.7 0 0 0 189.480148186 36.9981951506 L 182.900123488 55.8318292922 A 99.75 99.75 0 0 1 187.085905854 57.4003343042 z" fill="#4c1" stroke="white" stroke-width="1" />
<path d="M 176.320098791 74.6654634337 L 182.900123488 55.8318292922 A 99.75 99.75 0 0 0 171.729248205 52.6454814997 L 167.383398564 72.1163851997 A 79.8 79.8 0 0 1 176.320098791 74.6654634337 z" fill="#4c1" stroke="white" stroke-width="1" />
<path d="M 182.900123488 55.8318292922 L 189.480148186 36.9981951506 A 119.7 119.7 0 0 0 176.075097846 33.1745777996 L 171.729248205 52.6454814997 A 99.75 99.75 0 0 1 182.900123488 55.8318292922 z" fill="#4c1" stroke="white" stroke-width="1" />
<path d="M 167.383398564 72.1163851997 L 171.729248205 52.6454814997 A 99.75 99.75 0 0 0 169.1038919 52.0964565797 L 165.28311352 71.6771652637 A 79.8 79.8 0 0 1 167.383398564 72.1163851997 z" fill="#4c1" stroke="white" stroke-width="1" />
<path d="M 171.729248205 52.6454814997 L 176.075097846 33.1745777996 A 119.7 119.7 0 0 0 172.924670281 32.5157478956 L 169.1038919 52.0964565797 A 99.75 99.75 0 0 1 171.729248205 52.6454814997 z" fill="#4c1" stroke="white" stroke-width="1" />
<path d="M 165.28311352 71.6771652637 L 169.1038919 52.0964565797 A 99.75 99.75 0 0 0 160.263684092 50.7794411986 L 158.210947274 70.6235529589 A 79.8 79.8 0 0 1 165.28311352 71.6771652637 z" fill="#4c1" stroke="white" stroke-width="1" />
<path d="M 169.1038919 52.0964565797 L 172.924670281 32.5157478956 A 119.7 119.7 0 0 0 162.31642091 30.9353294383 L 160.263684092 50.7794411986 A 99.75 99.75 0 0 1 169.1038919 52.0964565797 z" fill="#4c1" stroke="white" stroke-width="1" />
<path d="M 156.158210455 90.4676647192 L 158.210947274 70.6235529589 A 79.8 79.8 0 0 0 131.223300393 72.4405031484 L 135.917475295 91.8303773613 A 59.85 59.85 0 0 1 156.158210455 90.4676647192 z" fill="#e05d44" stroke="white" stroke-width="1" />
<path d="M 158.210947274 70.6235529589 L 160.263684092 50.7794411986 A 99.75 99.75 0 0 0 158.4834679 50.6114027044 L 156.78677432 70.4891221635 A 79.8 79.8 0 0 1 158.210947274 70.6235529589 z" fill="#4c1" stroke="white" stroke-width="1" />
<path d="M 160.263684092 50.7794411986 L 162.31642091 30.9353294383 A 119.7 119.7 0 0 0 160.18016148 30.7336832453 L 158.4834679 50.6114027044 A 99.75 99.75 0 0 1 160.263684092 50.7794411986 z" fill="#4c1" stroke="white" stroke-width="1" />
<path d="M 156.78677432 70.4891221635 L 158.4834679 50.6114027044 A 99.75 99.75 0 0 0 156.700525585 50.4753022768 L 155.360420468 70.3802418215 A 79.8 79.8 0 0 1 156.78677432 70.4891221635 z" fill="#4c1" stroke="white" stroke-width="1" />
<path d="M 158.4834679 50.6114027044 L 160.18016148 30.7336832453 A 119.7 119.7 0 0 0 158.040630702 30.5703627322 L 156.700525585 50.4753022768 A 99.75 99.75 0 0 1 158.4834679 50.6114027044 z" fill="#4c1" stroke="white" stroke-width="1" />
<path d="M 155.360420468 70.3802418215 L 156.700525585 50.4753022768 A 99.75 99.75 0 0 0 154.915430086 50.3711836512 L 153.932344069 70.296946921 A 79.8 79.8 0 0 1 155.360420468 70.3802418215 z" fill="#4c1" stroke="white" stroke-width="1" />
<path d="M 156.700525585 50.4753022768 L 158.040630702 30.5703627322 A 119.7 119.7 0 0 0 155.898516104 30.4454203814 L 154.915430086 50.3711836512 A 99.75 99.75 0 0 1 156.700525585 50.4753022768 z" fill="#4c1" stroke="white" stroke-width="1" />
<path d="M 153.932344069 70.296946921 L 154.915430086 50.3711836512 A 99.75 99.75 0 0 0 153.128755037 50.2990802855 L 152.50300403 70.2392642284 A 79.8 79.8 0 0 1 153.932344069 70.296946921 z" fill="#4c1" stroke="white" stroke-width="1" />
<path d="M 154.915430086 50.3711836512 L 155.898516104 30.4454203814 A 119.7 119.7 0 0 0 153.754506045 30.3588963426 L 153.128755037 50.2990802855 A 99.75 99.75 0 0 1 154.915430086 50.3711836512 z" fill="#4c1" stroke="white" stroke-width="1" />
<path d="M 152.50300403 70.2392642284 L 153.128755037 50.2990802855 A 99.75 99.75 0 0 0 142.407698283 50.5393572581 L 143.926158626 70.4314858065 A 79.8 79.8 0 0 1 152.50300403 70.2392642284 z" fill="#e05d44" stroke="white" stroke-width="1" />
<path d="M 153.128755037 50.2990802855 L 153.754506045 30.3588963426 A 119.7 119.7 0 0 0 140.889237939 30.6472287097 L 142.407698283 50.5393572581 A 99.75 99.75 0 0 1 153.128755037 50.2990802855 z" fill="#e05d44" stroke="white" stroke-width="1" />
<path d="M 143.926158626 70.4314858065 L 142.407698283 50.5393572581 A 99.75 99.75 0 0 0 140.626047462 50.6914328277 L 142.50083797 70.5531462622 A 79.8 79.8 0 0 1 143.926158626 70.4314858065 z" fill="#4c1" stroke="white" stroke-width="1" />
<path d="M 142.407698283 50.5393572581 L 140.889237939 30.6472287097 A 119.7 119.7 0 0 0 138.751256954 30.8297193932 L 140.626047462 50.6914328277 A 99.75 99.75 0 0 1 142.407698283 50.5393572581 z" fill="#4c1" stroke="white" stroke-width="1" />
<path d="M 142.50083797 70.5531462622 L 140.626047462 50.6914328277 A 99.75 99.75 0 0 0 130.019360692 52.2716184886 L 134.015488553 71.8172947909 A 79.8 79.8 0 0 1 142.50083797 70.5531462622 z" fill="#e05d44" stroke="white" stroke-width="1" />
<path d="M 140.626047462 50.6914328277 L 138.751256954 30.8297193932 A 119.7 119.7 0 0 0 126.02323283 32.7259421863 L 130.019360692 52.2716184886 A 99.75 99.75 0 0 1 140.626047462 50.6914328277 z" fill="#e05d44" stroke="white" stroke-width="1" />
<path d="M 134.015488553 71.8172947909 L 130.019360692 52.2716184886 A 99.75 99.75 0 0 0 128.270751795 52.6454814997 L 132.616601436 72.1163851997 A 79.8 79.8 0 0 1 134.015488553 71.8172947909 z" fill="#4c1" stroke="white" stroke-width="1" />
<path d="M 130.019360692 52.2716184886 L 126.02323283 32.7259421863 A 119.7 119.7 0 0 0 123.924902154 33.1745777996 L 128.270751795 52.6454814997 A 99.75 99.75 0 0 1 130.019360692 52.2716184886 z" fill="#4c1" stroke="white" stroke-width="1" />
<path d="M 132.616601436 72.1163851997 L 128.270751795 52.6454814997 A 99.75 99.75 0 0 0 126.529125491 53.0506289356 L 131.223300393 72.4405031484 A 79.8 79.8 0 0 1 132.616601436 72.1163851997 z" fill="#4c1" stroke="white" stroke-width="1" />
<path d="M 128.270751795 52.6454814997 L 123.924902154 33.1745777996 A 119.7 119.7 0 0 0 121.834950589 33.6607547227 L 126.529125491 53.0506289356 A 99.75 99.75 0 0 1 128.270751795 52.6454814997 z" fill="#4c1" stroke="white" stroke-width="1" />
<path d="M 135.917475295 91.8303773613 L 131.223300393 72.4405031484 A 79.8 79.8 0 0 0 129.144801604 72.9733766814 L 134.358601203 92.2300325111 A 59.85 59.85 0 0 1 135.917475295 91.8303773613 z" fill="#4c1" stroke="white" stroke-width="1" />
<path d="M 131.223300393 72.4405031484 L 126.529125491 53.0506289356 A 99.75 99.75 0 0 0 123.931002005 53.7167208518 L 129.144801604 72.9733766814 A 79.8 79.8 0 0 1 131.223300393 72.4405031484 z" fill="#4c1" stroke="white" stroke-width="1" />
<path d="M 134.358601203 92.2300325111 L 129.144801604 72.9733766814 A 79.8 79.8 0 0 0 91.4040983385 204.171582112 L 106.053073754 190.628686584 A 59.85 59.85 0 0 1 134.358601203 92.2300325111 z" fill="#74cb06" stroke="white" stroke-width="1" />
<path d="M 129.144801604 72.9733766814 L 123.931002005 53.7167208518 A 99.75 99.75 0 0 0 100.836444123 63.2071012496 L 110.669155298 80.5656809997 A 79.8 79.8 0 0 1 129.144801604 72.9733766814 z" fill="#4c1" stroke="white" stroke-width="1" />
<path d="M 123.931002005 53.7167208518 L 118.717202406 34.4600650221 A 119.7 119.7 0 0 0 91.0037329472 45.8485214995 L 100.836444123 63.2071012496 A 99.75 99.75 0 0 1 123.931002005 53.7167208518 z" fill="#4c1" stroke="white" stroke-width="1" />
<path d="M 110.669155298 80.5656809997 L 100.836444123 63.2071012496 A 99.75 99.75 0 0 0 86.1486758636 73.3640364709 L 98.9189406909 88.6912291767 A 79.8 79.8 0 0 1 110.669155298 80.5656809997 z" fill="#4c1" stroke="white" stroke-width="1" />
<path d="M 100.836444123 63.2071012496 L 91.0037329472 45.8485214995 A 119.7 119.7 0 0 0 73.3784110364 58.0368437651 L 86.1486758636 73.3640364709 A 99.75 99.75 0 0 1 100.836444123 63.2071012496 z" fill="#4c1" stroke="white" stroke-width="1" />
<path d="M 98.9189406909 88.6912291767 L 86.1486758636 73.3640364709 A 99.75 99.75 0 0 0 77.6721203435 81.3069121061 L 92.1376962748 95.0455296849 A 79.8 79.8 0 0 1 98.9189406909 88.6912291767 z" fill="#9dc008" stroke="white" stroke-width="1" />
<path d="M 86.1486758636 73.3640364709 L 73.3784110364 58.0368437651 A 119.7 119.7 0 0 0 63.2065444122 67.5682945273 L 77.6721203435 81.3069121061 A 99.75 99.75 0 0 1 86.1486758636 73.3640364709 z" fill="#9dc008" stroke="white" stroke-width="1" />
<path d="M 92.1376962748 95.0455296849 L 77.6721203435 81.3069121061 A 99.75 99.75 0 0 0 68.0835634848 93.0811109678 L 84.4668507879 104.464888774 A 79.8 79.8 0 0 1 92.1376962748 95.0455296849 z" fill="#4c1" stroke="white" stroke-width="1" />
<path d="M 77.6721203435 81.3069121061 L 63.2065444122 67.5682945273 A 119.7 119.7 0 0 0 51.7002761818 81.6973331614 L 68.0835634848 93.0811109678 A 99.75 99.75 0 0 1 77.6721203435 81.3069121061 z" fill="#4c1" stroke="white" stroke-width="1" />
<path d="M 84.4668507879 104.464888774 L 68.0835634848 93.0811109678 A 99.75 99.75 0 0 0 56.5144348889 115.207592555 L 75.2115479111 122.166074044 A 79.8 79.8 0 0 1 84.4668507879 104.464888774 z" fill="#dfb317" stroke="white" stroke-width="1" />
<path d="M 68.0835634848 93.0811109678 L 51.7002761818 81.6973331614 A 119.7 119.7 0 0 0 37.8173218666 108.249111065 L 56.5144348889 115.207592555 A 99.75 99.75 0 0 1 68.0835634848 93.0811109678 z" fill="#dfb317" stroke="white" stroke-width="1" />
<path d="M 75.2115479111 122.166074044 L 56.5144348889 115.207592555 A 99.75 99.75 0 0 0 52.6944166357 128.052655146 L 72.1555333085 132.442124117 A 79.8 79.8 0 0 1 75.2115479111 122.166074044 z" fill="#b2ac1c" stroke="white" stroke-width="1" />
<path d="M 56.5144348889 115.207592555 L 37.8173218666 108.249111065 A 119.7 119.7 0 0 0 33.2332999628 123.663186176 L 52.6944166357 128.052655146 A 99.75 99.75 0 0 1 56.5144348889 115.207592555 z" fill="#b2ac1c" stroke="white" stroke-width="1" />
<path d="M 72.1555333085 132.442124117 L 52.6944166357 128.052655146 A 99.75 99.75 0 0 0 50.712687225 140.403541179 L 70.57014978 142.322832943 A 79.8 79.8 0 0 1 72.1555333085 132.442124117 z" fill="#4c1" stroke="white" stroke-width="1" />
<path d="M 52.6944166357 128.052655146 L 33.2332999628 123.663186176 A 119.7 119.7 0 0 0 30.85522467 138.484249414 L 50.712687225 140.403541179 A 99.75 99.75 0 0 1 52.6944166357 128.052655146 z" fill="#4c1" stroke="white" stroke-width="1" />
<path d="M 70.57014978 142.322832943 L 50.712687225 140.403541179 A 99.75 99.75 0 0 0 50.5225941947 157.369412069 L 70.4180753558 155.895529655 A 79.8 79.8 0 0 1 70.57014978 142.322832943 z" fill="#4c1" stroke="white" stroke-width="1" />
<path d="M 50.712687225 140.403541179 L 30.85522467 138.484249414 A 119.7 119.7 0 0 0 30.6271130336 158.843294483 L 50.5225941947 157.369412069 A 99.75 99.75 0 0 1 50.712687225 140.403541179 z" fill="#4c1" stroke="white" stroke-width="1" />
<path d="M 70.4180753558 155.895529655 L 50.5225941947 157.369412069 A 99.75 99.75 0 0 0 52.4081431284 170.637150296 L 71.9265145027 166.509720237 A 79.8 79.8 0 0 1 70.4180753558 155.895529655 z" fill="#4c1" stroke="white" stroke-width="1" />
<path d="M 50.5225941947 157.369412069 L 30.6271130336 158.843294483 A 119.7 119.7 0 0 0 32.8897717541 174.764580356 L 52.4081431284 170.637150296 A 99.75 99.75 0 0 1 50.5225941947 157.369412069 z" fill="#4c1" stroke="white" stroke-width="1" />
<path d="M 71.9265145027 166.509720237 L 52.4081431284 170.637150296 A 99.75 99.75 0 0 0 55.4691354218 181.843023445 L 74.3753083375 175.474418756 A 79.8 79.8 0 0 1 71.9265145027 166.509720237 z" fill="#4c1" stroke="white" stroke-width="1" />
<path d="M 52.4081431284 170.637150296 L 32.8897717541 174.764580356 A 119.7 119.7 0 0 0 36.5629625062 188.211628134 L 55.4691354218 181.843023445 A 99.75 99.75 0 0 1 52.4081431284 170.637150296 z" fill="#4c1" stroke="white" stroke-width="1" />
<path d="M 74.3753083375 175.474418756 L 55.4691354218 181.843023445 A 99.75 99.75 0 0 0 60.1977428932 193.423693055 L 78.1581943146 184.738954444 A 79.8 79.8 0 0 1 74.3753083375 175.474418756 z" fill="#4c1" stroke="white" stroke-width="1" />
<path d="M 55.4691354218 181.843023445 L 36.5629625062 188.211628134 A 119.7 119.7 0 0 0 42.2372914719 202.108431666 L 60.1977428932 193.423693055 A 99.75 99.75 0 0 1 55.4691354218 181.843023445 z" fill="#4c1" stroke="white" stroke-width="1" />
<path d="M 78.1581943146 184.738954444 L 60.1977428932 193.423693055 A 99.75 99.75 0 0 0 67.3257292019 205.812430945 L 83.8605833615 194.649944756 A 79.8 79.8 0 0 1 78.1581943146 184.738954444 z" fill="#4c1" stroke="white" stroke-width="1" />
<path d="M 60.1977428932 193.423693055 L 42.2372914719 202.108431666 A 119.7 119.7 0 0 0 50.7908750422 216.974917134 L 67.3257292019 205.812430945 A 99.75 99.75 0 0 1 60.1977428932 193.423693055 z" fill="#4c1" stroke="white" stroke-width="1" />
<path d="M 83.8605833615 194.649944756 L 67.3257292019 205.812430945 A 99.75 99.75 0 0 0 76.7551229231 217.714477639 L 91.4040983385 204.171582112 A 79.8 79.8 0 0 1 83.8605833615 194.649944756 z" fill="#4c1" stroke="white" stroke-width="1" />
<path d="M 67.3257292019 205.812430945 L 50.7908750422 216.974917134 A 119.7 119.7 0 0 0 62.1061475077 231.257373167 L 76.7551229231 217.714477639 A 99.75 99.75 0 0 1 67.3257292019 205.812430945 z" fill="#4c1" stroke="white" stroke-width="1" />
<path d="M 106.053073754 190.628686584 L 91.4040983385 204.171582112 A 79.8 79.8 0 0 0 145.710500431 229.684629593 L 146.782875323 209.763472195 A 59.85 59.85 0 0 1 106.053073754 190.628686584 z" fill="#fc8232" stroke="white" stroke-width="1" />
<path d="M 91.4040983385 204.171582112 L 76.7551229231 217.714477639 A 99.75 99.75 0 0 0 102.007762185 237.446026836 L 111.606209748 219.956821469 A 79.8 79.8 0 0 1 91.4040983385 204.171582112 z" fill="#ecaa17" stroke="white" stroke-width="1" />
<path d="M 76.7551229231 217.714477639 L 62.1061475077 231.257373167 A 119.7 119.7 0 0 0 92.4093146216 254.935232204 L 102.007762185 237.446026836 A 99.75 99.75 0 0 1 76.7551229231 217.714477639 z" fill="#ecaa17" stroke="white" stroke-width="1" />
<path d="M 111.606209748 219.956821469 L 102.007762185 237.446026836 A 99.75 99.75 0 0 0 105.173108233 239.1101132 L 114.138486586 221.28809056 A 79.8 79.8 0 0 1 111.606209748 219.956821469 z" fill="#4c1" stroke="white" stroke-width="1" />
<path d="M 102.007762185 237.446026836 L 92.4093146216 254.935232204 A 119.7 119.7 0 0 0 96.2077298797 256.93213584 L 105.173108233 239.1101132 A 99.75 99.75 0 0 1 102.007762185 237.446026836 z" fill="#4c1" stroke="white" stroke-width="1" />
<path d="M 114.138486586 221.28809056 L 105.173108233 239.1101132 A 99.75 99.75 0 0 0 121.78021753 245.675003932 L 127.424174024 226.540003145 A 79.8 79.8 0 0 1 114.138486586 221.28809056 z" fill="#fa7739" stroke="white" stroke-width="1" />
<path d="M 105.173108233 239.1101132 L 96.2077298797 256.93213584 A 119.7 119.7 0 0 0 116.136261036 264.810004718 L 121.78021753 245.675003932 A 99.75 99.75 0 0 1 105.173108233 239.1101132 z" fill="#fa7739" stroke="white" stroke-width="1" />
<path d="M 127.424174024 226.540003145 L 121.78021753 245.675003932 A 99.75 99.75 0 0 0 144.638125539 249.605786992 L 145.710500431 229.684629593 A 79.8 79.8 0 0 1 127.424174024 226.540003145 z" fill="#e05d44" stroke="white" stroke-width="1" />
<path d="M 121.78021753 245.675003932 L 116.136261036 264.810004718 A 119.7 119.7 0 0 0 143.565750646 269.52694439 L 144.638125539 249.605786992 A 99.75 99.75 0 0 1 121.78021753 245.675003932 z" fill="#e05d44" stroke="white" stroke-width="1" />
<path d="M 148.927625108 169.921157398 L 147.855250215 189.842314797 A 39.9 39.9 0 0 0 150.0 189.9 L 150.0 169.95 A 19.95 19.95 0 0 1 148.927625108 169.921157398 z" fill="#e05d44" stroke="white" stroke-width="1" />
<path d="M 147.855250215 189.842314797 L 146.782875323 209.763472195 A 59.85 59.85 0 0 0 150.0 209.85 L 150.0 189.9 A 39.9 39.9 0 0 1 147.855250215 189.842314797 z" fill="#e05d44" stroke="white" stroke-width="1" />
</svg>