<svg baseProfile="full" width="300" height="300" viewBox="0 0 300 300" version="1.1"
xmlns="http://www.w3.org/2000/svg" xmlns:ev="http://www.w3.org/2001/xml-events"
xmlns:xlink="http://www.w3.org/1999/xlink">

<style>rect.s{mask:url(#mask);}</style>
<defs>
  <pattern id="white" width="4" height="4" patternUnits="userSpaceOnUse" patternTransform="rotate(45)">
    <rect width="2" height="2" transform="translate(0,0)" fill="white"></rect>
  </pattern>
  <mask id="mask">
    <rect x="0" y="0" width="100%" height="100%" fill="url(#white)"></rect>
  </mask>
</defs>

<circle cx="150.0" cy="150.0" fill="#9dc008" r="49.875" stroke="white" stroke-width="1" />
<path d="M 150.0 199.875 L 150.0 249.75 A 99.75 99.75 0 0 0 154.2051141 249.66132407 L 152.10255705 199.830662035 A 49.875 49.875 0 0 1 150.0 199.875 z" fill="#e05d44" stroke="white" stroke-width="1" />
<path d="M 152.10255705 199.830662035 L 154.2051141 249.66132407 A 99.75 99.75 0 0 0 214.475387751 226.111673706 L 182.237693875 188.055836853 A 49.875 49.875 0 0 1 152.10255705 199.830662035 z" fill="#63cc0a" stroke="white" stroke-width="1" />
<path d="M 182.237693875 188.055836853 L 214.475387751 226.111673706 A 99.75 99.75 0 0 0 143.694665632 50.4494838863 L 146.847332816 100.224741943 A 49.875 49.875 0 0 1 182.237693875 188.055836853 z" fill="#4c1" stroke="white" stroke-width="1" />
<path d="M 146.847332816 100.224741943 L 143.694665632 50.4494838863 A 99.75 99.75 0 0 0 74.5722592814 215.274178892 L 112.286129641 182.637089446 A 49.875 49.875 0 0 1 146.847332816 100.224741943 z" fill="#ebad15" stroke="white" stroke-width="1" />
<path d="M 143.694665632 50.4494838863 L 140.541998447 0.674225829454 A 149.625 149.625 0 0 0 49.3355081969 39.300854949 L 82.8903387979 76.200569966 A 99.75 99.75 0 0 1 143.694665632 50.4494838863 z" fill="#d3b319" stroke="white" stroke-width="1" />
<path d="M 82.8903387979 76.200569966 L 49.3355081969 39.300854949 A 149.625 149.625 0 0 0 40.3682177075 48.1741047849 L 76.9121451383 82.1160698566 A 99.75 99.75 0 0 1 82.8903387979 76.200569966 z" fill="#d3b319" stroke="white" stroke-width="1" />
<path d="M 76.9121451383 82.1160698566 L 40.3682177075 48.1741047849 A 149.625 149.625 0 0 0 3.16094094817 178.739021587 L 52.1072939654 169.159347725 A 99.75 99.75 0 0 1 76.9121451383 82.1160698566 z" fill="#cfb319" stroke="white" stroke-width="1" />
<path d="M 52.1072939654 169.159347725 L 3.16094094817 178.739021587 A 149.625 149.625 0 0 0 36.8583889221 247.911268339 L 74.5722592814 215.274178892 A 99.75 99.75 0 0 1 52.1072939654 169.159347725 z" fill="#ef6a3d" stroke="white" stroke-width="1" />
<path d="M 112.286129641 182.637089446 L 74.5722592814 215.274178892 A 99.75 99.75 0 0 0 75.4971967264 216.327933817 L 112.748598363 183.163966908 A 49.875 49.875 0 0 1 112.286129641 182.637089446 z" fill="#4c1" stroke="white" stroke-width="1" />
<path d="M 112.748598363 183.163966908 L 75.4971967264 216.327933817 A 99.75 99.75 0 0 0 144.394473696 249.592372072 L 147.197236848 199.796186036 A 49.875 49.875 0 0 1 112.748598363 183.163966908 z" fill="#4c1" stroke="white" stroke-width="1" />
<path d="M 147.197236848 199.796186036 L 144.394473696 249.592372072 A 99.75 99.75 0 0 0 150.0 249.75 L 150.0 199.875 A 49.875 49.875 0 0 1 147.197236848 199.796186036 z" fill="#4c1" stroke="white" stroke-width="1" />
</svg>