<svg baseProfile="full" width="300" height="300" viewBox="0 0 300 300" version="1.1"
xmlns="http://www.w3.org/2000/svg" xmlns:ev="http://www.w3.org/2001/xml-events"
xmlns:xlink="http://www.w3.org/1999/xlink">

<style>rect.s{mask:url(#mask);}</style>
<defs>
  <pattern id="white" width="4" height="4" patternUnits="userSpaceOnUse" patternTransform="rotate(45)">
    <rect width="2" height="2" transform="translate(0,0)" fill="white"></rect>
  </pattern>
  <mask id="mask">
    <rect x="0" y="0" width="100%" height="100%" fill="url(#white)"></rect>
  </mask>
</defs>

<circle cx="150.0" cy="150.0" fill="#fd8035" r="24.9375" stroke="white" stroke-width="1" />
<path d="M 150.0 174.9375 L 150.0 199.875 A 49.875 49.875 0 0 0 196.797545752 167.248343011 L 173.398772876 158.624171505 A 24.9375 24.9375 0 0 1 150.0 174.9375 z" fill="#4c1" stroke="white" stroke-width="1" />
<path d="M 150.0 199.875 L 150.0 224.8125 A 74.8125 74.8125 0 0 0 168.039848469 222.60491735 L 162.026565646 198.403278234 A 49.875 49.875 0 0 1 150.0 199.875 z" fill="#4c1" stroke="white" stroke-width="1" />
<path d="M 150.0 224.8125 L 150.0 249.75 A 99.75 99.75 0 0 0 151.619432042 249.736853469 L 151.214574031 224.802640102 A 74.8125 74.8125 0 0 1 150.0 224.8125 z" fill="#4c1" stroke="white" stroke-width="1" />
<path d="M 151.214574031 224.802640102 L 151.619432042 249.736853469 A 99.75 99.75 0 0 0 164.523716482 248.687000965 L 160.892787361 224.015250724 A 74.8125 74.8125 0 0 1 151.214574031 224.802640102 z" fill="#4c1" stroke="white" stroke-width="1" />
<path d="M 160.892787361 224.015250724 L 164.523716482 248.687000965 A 99.75 99.75 0 0 0 174.053131292 246.806556467 L 168.039848469 222.60491735 A 74.8125 74.8125 0 0 1 160.892787361 224.015250724 z" fill="#4c1" stroke="white" stroke-width="1" />
<path d="M 162.026565646 198.403278234 L 168.039848469 222.60491735 A 74.8125 74.8125 0 0 0 182.850215601 217.214384556 L 171.900143734 194.809589704 A 49.875 49.875 0 0 1 162.026565646 198.403278234 z" fill="#4c1" stroke="white" stroke-width="1" />
<path d="M 168.039848469 222.60491735 L 174.053131292 246.806556467 A 99.75 99.75 0 0 0 175.621606722 246.4032975 L 169.216205042 222.302473125 A 74.8125 74.8125 0 0 1 168.039848469 222.60491735 z" fill="#4c1" stroke="white" stroke-width="1" />
<path d="M 169.216205042 222.302473125 L 175.621606722 246.4032975 A 99.75 99.75 0 0 0 184.876294425 243.454302133 L 176.157220819 220.0907266 A 74.8125 74.8125 0 0 1 169.216205042 222.302473125 z" fill="#4c1" stroke="white" stroke-width="1" />
<path d="M 176.157220819 220.0907266 L 184.876294425 243.454302133 A 99.75 99.75 0 0 0 193.800287467 239.619179408 L 182.850215601 217.214384556 A 74.8125 74.8125 0 0 1 176.157220819 220.0907266 z" fill="#4c1" stroke="white" stroke-width="1" />
<path d="M 171.900143734 194.809589704 L 182.850215601 217.214384556 A 74.8125 74.8125 0 0 0 206.719905122 198.78280967 L 187.813270081 182.521873113 A 49.875 49.875 0 0 1 171.900143734 194.809589704 z" fill="#4c1" stroke="white" stroke-width="1" />
<path d="M 182.850215601 217.214384556 L 193.800287467 239.619179408 A 99.75 99.75 0 0 0 195.249473922 238.896274443 L 183.937105441 216.672205832 A 74.8125 74.8125 0 0 1 182.850215601 217.214384556 z" fill="#4c1" stroke="white" stroke-width="1" />
<path d="M 183.937105441 216.672205832 L 195.249473922 238.896274443 A 99.75 99.75 0 0 0 218.941859977 222.090793052 L 201.706394983 204.068094789 A 74.8125 74.8125 0 0 1 183.937105441 216.672205832 z" fill="#4c1" stroke="white" stroke-width="1" />
<path d="M 201.706394983 204.068094789 L 218.941859977 222.090793052 A 99.75 99.75 0 0 0 225.626540162 215.043746226 L 206.719905122 198.78280967 A 74.8125 74.8125 0 0 1 201.706394983 204.068094789 z" fill="#4c1" stroke="white" stroke-width="1" />
<path d="M 187.813270081 182.521873113 L 206.719905122 198.78280967 A 74.8125 74.8125 0 0 0 220.196318627 175.872514516 L 196.797545752 167.248343011 A 49.875 49.875 0 0 1 187.813270081 182.521873113 z" fill="#4c1" stroke="white" stroke-width="1" />
<path d="M 206.719905122 198.78280967 L 225.626540162 215.043746226 A 99.75 99.75 0 0 0 226.672552193 213.8073839 L 207.504414145 197.855537925 A 74.8125 74.8125 0 0 1 206.719905122 198.78280967 z" fill="#4c1" stroke="white" stroke-width="1" />
<path d="M 207.504414145 197.855537925 L 226.672552193 213.8073839 A 99.75 99.75 0 0 0 239.796221912 193.436171912 L 217.347166434 182.577128934 A 74.8125 74.8125 0 0 1 207.504414145 197.855537925 z" fill="#4c1" stroke="white" stroke-width="1" />
<path d="M 217.347166434 182.577128934 L 239.796221912 193.436171912 A 99.75 99.75 0 0 0 243.595091503 184.496686022 L 220.196318627 175.872514516 A 74.8125 74.8125 0 0 1 217.347166434 182.577128934 z" fill="#4c1" stroke="white" stroke-width="1" />
<path d="M 173.398772876 158.624171505 L 196.797545752 167.248343011 A 49.875 49.875 0 1 0 100.306069945 145.753949994 L 125.153034972 147.876974997 A 24.9375 24.9375 0 1 1 173.398772876 158.624171505 z" fill="#ea653f" stroke="white" stroke-width="1" />
<path d="M 196.797545752 167.248343011 L 220.196318627 175.872514516 A 74.8125 74.8125 0 0 0 220.805525529 125.844509718 L 197.203683686 133.896339812 A 49.875 49.875 0 0 1 196.797545752 167.248343011 z" fill="#4c1" stroke="white" stroke-width="1" />
<path d="M 220.196318627 175.872514516 L 243.595091503 184.496686022 A 99.75 99.75 0 0 0 248.745138274 164.12303676 L 224.058853705 160.59227757 A 74.8125 74.8125 0 0 1 220.196318627 175.872514516 z" fill="#4c1" stroke="white" stroke-width="1" />
<path d="M 243.595091503 184.496686022 L 266.993864379 193.120857527 A 124.6875 124.6875 0 0 0 273.431422842 167.653795949 L 248.745138274 164.12303676 A 99.75 99.75 0 0 1 243.595091503 184.496686022 z" fill="#4c1" stroke="white" stroke-width="1" />
<path d="M 224.058853705 160.59227757 L 248.745138274 164.12303676 A 99.75 99.75 0 0 0 248.090726264 131.881724115 L 223.568044698 136.411293086 A 74.8125 74.8125 0 0 1 224.058853705 160.59227757 z" fill="#4c1" stroke="white" stroke-width="1" />
<path d="M 248.745138274 164.12303676 L 273.431422842 167.653795949 A 124.6875 124.6875 0 0 0 272.61340783 127.352155144 L 248.090726264 131.881724115 A 99.75 99.75 0 0 1 248.745138274 164.12303676 z" fill="#4c1" stroke="white" stroke-width="1" />
<path d="M 223.568044698 136.411293086 L 248.090726264 131.881724115 A 99.75 99.75 0 0 0 247.092260589 127.127408681 L 222.819195442 132.84555651 A 74.8125 74.8125 0 0 1 223.568044698 136.411293086 z" fill="#4c1" stroke="white" stroke-width="1" />
<path d="M 248.090726264 131.881724115 L 272.61340783 127.352155144 A 124.6875 124.6875 0 0 0 271.365325737 121.409260851 L 247.092260589 127.127408681 A 99.75 99.75 0 0 1 248.090726264 131.881724115 z" fill="#4c1" stroke="white" stroke-width="1" />
<path d="M 222.819195442 132.84555651 L 247.092260589 127.127408681 A 99.75 99.75 0 0 0 245.8635028 122.427344506 L 221.8976271 129.32050838 A 74.8125 74.8125 0 0 1 222.819195442 132.84555651 z" fill="#4c1" stroke="white" stroke-width="1" />
<path d="M 247.092260589 127.127408681 L 271.365325737 121.409260851 A 124.6875 124.6875 0 0 0 269.8293785 115.534180633 L 245.8635028 122.427344506 A 99.75 99.75 0 0 1 247.092260589 127.127408681 z" fill="#4c1" stroke="white" stroke-width="1" />
<path d="M 221.8976271 129.32050838 L 245.8635028 122.427344506 A 99.75 99.75 0 0 0 244.407367372 117.792679624 L 220.805525529 125.844509718 A 74.8125 74.8125 0 0 1 221.8976271 129.32050838 z" fill="#4c1" stroke="white" stroke-width="1" />
<path d="M 245.8635028 122.427344506 L 269.8293785 115.534180633 A 124.6875 124.6875 0 0 0 268.009209216 109.74084953 L 244.407367372 117.792679624 A 99.75 99.75 0 0 1 245.8635028 122.427344506 z" fill="#4c1" stroke="white" stroke-width="1" />
<path d="M 197.203683686 133.896339812 L 220.805525529 125.844509718 A 74.8125 74.8125 0 0 0 207.114041498 101.67923407 L 188.076027665 117.786156047 A 49.875 49.875 0 0 1 197.203683686 133.896339812 z" fill="#e05d44" stroke="white" stroke-width="1" />
<path d="M 220.805525529 125.844509718 L 244.407367372 117.792679624 A 99.75 99.75 0 0 0 243.311973133 114.744671749 L 219.983979849 123.558503811 A 74.8125 74.8125 0 0 1 220.805525529 125.844509718 z" fill="#4c1" stroke="white" stroke-width="1" />
<path d="M 244.407367372 117.792679624 L 268.009209216 109.74084953 A 124.6875 124.6875 0 0 0 266.639966416 105.930839686 L 243.311973133 114.744671749 A 99.75 99.75 0 0 1 244.407367372 117.792679624 z" fill="#4c1" stroke="white" stroke-width="1" />
<path d="M 219.983979849 123.558503811 L 243.311973133 114.744671749 A 99.75 99.75 0 0 0 241.484812728 110.243345965 L 218.613609546 120.182509474 A 74.8125 74.8125 0 0 1 219.983979849 123.558503811 z" fill="#4c1" stroke="white" stroke-width="1" />
<path d="M 243.311973133 114.744671749 L 266.639966416 105.930839686 A 124.6875 124.6875 0 0 0 264.356015911 100.304182456 L 241.484812728 110.243345965 A 99.75 99.75 0 0 1 243.311973133 114.744671749 z" fill="#4c1" stroke="white" stroke-width="1" />
<path d="M 218.613609546 120.182509474 L 241.484812728 110.243345965 A 99.75 99.75 0 0 0 232.057240671 93.2842900648 L 211.542930503 107.463217549 A 74.8125 74.8125 0 0 1 218.613609546 120.182509474 z" fill="#e05d44" stroke="white" stroke-width="1" />
<path d="M 241.484812728 110.243345965 L 264.356015911 100.304182456 A 124.6875 124.6875 0 0 0 252.571550839 79.1053625809 L 232.057240671 93.2842900648 A 99.75 99.75 0 0 1 241.484812728 110.243345965 z" fill="#e05d44" stroke="white" stroke-width="1" />
<path d="M 211.542930503 107.463217549 L 232.057240671 93.2842900648 A 99.75 99.75 0 0 0 230.172678728 90.6501551342 L 210.129509046 105.487616351 A 74.8125 74.8125 0 0 1 211.542930503 107.463217549 z" fill="#4c1" stroke="white" stroke-width="1" />
<path d="M 232.057240671 93.2842900648 L 252.571550839 79.1053625809 A 124.6875 124.6875 0 0 0 250.21584841 75.8126939177 L 230.172678728 90.6501551342 A 99.75 99.75 0 0 1 232.057240671 93.2842900648 z" fill="#4c1" stroke="white" stroke-width="1" />
<path d="M 210.129509046 105.487616351 L 230.172678728 90.6501551342 A 99.75 99.75 0 0 0 228.203591619 88.0785920869 L 208.652693714 103.558944065 A 74.8125 74.8125 0 0 1 210.129509046 105.487616351 z" fill="#4c1" stroke="white" stroke-width="1" />
<path d="M 230.172678728 90.6501551342 L 250.21584841 75.8126939177 A 124.6875 124.6875 0 0 0 247.754489523 72.5982401086 L 228.203591619 88.0785920869 A 99.75 99.75 0 0 1 230.172678728 90.6501551342 z" fill="#4c1" stroke="white" stroke-width="1" />
<path d="M 208.652693714 103.558944065 L 228.203591619 88.0785920869 A 99.75 99.75 0 0 0 226.15205533 85.5723120932 L 207.114041498 101.67923407 A 74.8125 74.8125 0 0 1 208.652693714 103.558944065 z" fill="#4c1" stroke="white" stroke-width="1" />
<path d="M 228.203591619 88.0785920869 L 247.754489523 72.5982401086 A 124.6875 124.6875 0 0 0 245.190069163 69.4653901165 L 226.15205533 85.5723120932 A 99.75 99.75 0 0 1 228.203591619 88.0785920869 z" fill="#4c1" stroke="white" stroke-width="1" />
<path d="M 188.076027665 117.786156047 L 207.114041498 101.67923407 A 74.8125 74.8125 0 0 0 203.857778631 98.0745742701 L 185.905185754 115.383049513 A 49.875 49.875 0 0 1 188.076027665 117.786156047 z" fill="#4c1" stroke="white" stroke-width="1" />
<path d="M 207.114041498 101.67923407 L 226.15205533 85.5723120932 A 99.75 99.75 0 0 0 221.810371507 80.7660990267 L 203.857778631 98.0745742701 A 74.8125 74.8125 0 0 1 207.114041498 101.67923407 z" fill="#4c1" stroke="white" stroke-width="1" />
<path d="M 185.905185754 115.383049513 L 203.857778631 98.0745742701 A 74.8125 74.8125 0 0 0 75.8576013205 140.009260573 L 100.571734214 143.339507049 A 49.875 49.875 0 0 1 185.905185754 115.383049513 z" fill="#e05d44" stroke="white" stroke-width="1" />
<path d="M 203.857778631 98.0745742701 L 221.810371507 80.7660990267 A 99.75 99.75 0 0 0 200.225220926 63.8171149069 L 187.668915694 85.3628361802 A 74.8125 74.8125 0 0 1 203.857778631 98.0745742701 z" fill="#4c1" stroke="white" stroke-width="1" />
<path d="M 221.810371507 80.7660990267 L 239.762964384 63.4576237834 A 124.6875 124.6875 0 0 0 212.781526157 42.2713936336 L 200.225220926 63.8171149069 A 99.75 99.75 0 0 1 221.810371507 80.7660990267 z" fill="#4c1" stroke="white" stroke-width="1" />
<path d="M 187.668915694 85.3628361802 L 200.225220926 63.8171149069 A 99.75 99.75 0 0 0 176.403337613 53.8078679782 L 169.80250321 77.8559009836 A 74.8125 74.8125 0 0 1 187.668915694 85.3628361802 z" fill="#4c1" stroke="white" stroke-width="1" />
<path d="M 200.225220926 63.8171149069 L 212.781526157 42.2713936336 A 124.6875 124.6875 0 0 0 183.004172016 29.7598349727 L 176.403337613 53.8078679782 A 99.75 99.75 0 0 1 200.225220926 63.8171149069 z" fill="#4c1" stroke="white" stroke-width="1" />
<path d="M 169.80250321 77.8559009836 L 176.403337613 53.8078679782 A 99.75 99.75 0 0 0 147.570985336 50.2795788829 L 148.178239002 75.2096841622 A 74.8125 74.8125 0 0 1 169.80250321 77.8559009836 z" fill="#e05d44" stroke="white" stroke-width="1" />
<path d="M 176.403337613 53.8078679782 L 183.004172016 29.7598349727 A 124.6875 124.6875 0 0 0 146.96373167 25.3494736037 L 147.570985336 50.2795788829 A 99.75 99.75 0 0 1 176.403337613 53.8078679782 z" fill="#e05d44" stroke="white" stroke-width="1" />
<path d="M 148.178239002 75.2096841622 L 147.570985336 50.2795788829 A 99.75 99.75 0 0 0 125.161812593 53.3918898521 L 131.371359445 77.5439173891 A 74.8125 74.8125 0 0 1 148.178239002 75.2096841622 z" fill="#4c1" stroke="white" stroke-width="1" />
<path d="M 147.570985336 50.2795788829 L 146.96373167 25.3494736037 A 124.6875 124.6875 0 0 0 118.952265742 29.2398623151 L 125.161812593 53.3918898521 A 99.75 99.75 0 0 1 147.570985336 50.2795788829 z" fill="#4c1" stroke="white" stroke-width="1" />
<path d="M 131.371359445 77.5439173891 L 125.161812593 53.3918898521 A 99.75 99.75 0 0 0 91.6307708439 69.1105965671 L 106.223078133 89.3329474254 A 74.8125 74.8125 0 0 1 131.371359445 77.5439173891 z" fill="#e05d44" stroke="white" stroke-width="1" />
<path d="M 125.161812593 53.3918898521 L 118.952265742 29.2398623151 A 124.6875 124.6875 0 0 0 77.0384635549 48.8882457089 L 91.6307708439 69.1105965671 A 99.75 99.75 0 0 1 125.161812593 53.3918898521 z" fill="#e05d44" stroke="white" stroke-width="1" />
<path d="M 106.223078133 89.3329474254 L 91.6307708439 69.1105965671 A 99.75 99.75 0 0 0 64.4350672233 98.7291039778 L 85.8263004175 111.546827983 A 74.8125 74.8125 0 0 1 106.223078133 89.3329474254 z" fill="#e05d44" stroke="white" stroke-width="1" />
<path d="M 91.6307708439 69.1105965671 L 77.0384635549 48.8882457089 A 124.6875 124.6875 0 0 0 43.0438340291 85.9113799723 L 64.4350672233 98.7291039778 A 99.75 99.75 0 0 1 91.6307708439 69.1105965671 z" fill="#e05d44" stroke="white" stroke-width="1" />
<path d="M 85.8263004175 111.546827983 L 64.4350672233 98.7291039778 A 99.75 99.75 0 0 0 55.5926326275 117.792679624 L 79.1944744706 125.844509718 A 74.8125 74.8125 0 0 1 85.8263004175 111.546827983 z" fill="#9dc008" stroke="white" stroke-width="1" />
<path d="M 64.4350672233 98.7291039778 L 43.0438340291 85.9113799723 A 124.6875 124.6875 0 0 0 31.9907907844 109.74084953 L 55.5926326275 117.792679624 A 99.75 99.75 0 0 1 64.4350672233 98.7291039778 z" fill="#9dc008" stroke="white" stroke-width="1" />
<path d="M 79.1944744706 125.844509718 L 55.5926326275 117.792679624 A 99.75 99.75 0 0 0 51.1434684273 136.679014098 L 75.8576013205 140.009260573 A 74.8125 74.8125 0 0 1 79.1944744706 125.844509718 z" fill="#4c1" stroke="white" stroke-width="1" />
<path d="M 55.5926326275 117.792679624 L 31.9907907844 109.74084953 A 124.6875 124.6875 0 0 0 26.4293355341 133.348767622 L 51.1434684273 136.679014098 A 99.75 99.75 0 0 1 55.5926326275 117.792679624 z" fill="#4c1" stroke="white" stroke-width="1" />
<path d="M 100.571734214 143.339507049 L 75.8576013205 140.009260573 A 74.8125 74.8125 0 0 0 75.459104917 143.63092499 L 100.306069945 145.753949994 A 49.875 49.875 0 0 1 100.571734214 143.339507049 z" fill="#4c1" stroke="white" stroke-width="1" />
<path d="M 75.8576013205 140.009260573 L 51.1434684273 136.679014098 A 99.75 99.75 0 0 0 50.6121398893 141.507899987 L 75.459104917 143.63092499 A 74.8125 74.8125 0 0 1 75.8576013205 140.009260573 z" fill="#4c1" stroke="white" stroke-width="1" />
<path d="M 125.153034972 147.876974997 L 100.306069945 145.753949994 A 49.875 49.875 0 0 0 116.118806786 186.600278297 L 133.059403393 168.300139148 A 24.9375 24.9375 0 0 1 125.153034972 147.876974997 z" fill="#4c1" stroke="white" stroke-width="1" />
<path d="M 100.306069945 145.753949994 L 75.459104917 143.63092499 A 74.8125 74.8125 0 0 0 80.6806500246 178.137837075 L 103.787100016 168.75855805 A 49.875 49.875 0 0 1 100.306069945 145.753949994 z" fill="#4c1" stroke="white" stroke-width="1" />
<path d="M 75.459104917 143.63092499 L 50.6121398893 141.507899987 A 99.75 99.75 0 0 0 57.5742000328 187.517116099 L 80.6806500246 178.137837075 A 74.8125 74.8125 0 0 1 75.459104917 143.63092499 z" fill="#4c1" stroke="white" stroke-width="1" />
<path d="M 103.787100016 168.75855805 L 80.6806500246 178.137837075 A 74.8125 74.8125 0 0 0 99.1782101788 204.900417445 L 116.118806786 186.600278297 A 49.875 49.875 0 0 1 103.787100016 168.75855805 z" fill="#4c1" stroke="white" stroke-width="1" />
<path d="M 80.6806500246 178.137837075 L 57.5742000328 187.517116099 A 99.75 99.75 0 0 0 82.2376135717 223.200556593 L 99.1782101788 204.900417445 A 74.8125 74.8125 0 0 1 80.6806500246 178.137837075 z" fill="#4c1" stroke="white" stroke-width="1" />
<path d="M 133.059403393 168.300139148 L 116.118806786 186.600278297 A 49.875 49.875 0 0 0 150.0 199.875 L 150.0 174.9375 A 24.9375 24.9375 0 0 1 133.059403393 168.300139148 z" fill="#e05d44" stroke="white" stroke-width="1" />
<path d="M 116.118806786 186.600278297 L 99.1782101788 204.900417445 A 74.8125 74.8125 0 0 0 106.716998775 211.020422493 L 121.14466585 190.680281662 A 49.875 49.875 0 0 1 116.118806786 186.600278297 z" fill="#e05d44" stroke="white" stroke-width="1" />
<path d="M 121.14466585 190.680281662 L 106.716998775 211.020422493 A 74.8125 74.8125 0 0 0 114.984950186 216.112453008 L 126.656633457 194.074968672 A 49.875 49.875 0 0 1 121.14466585 190.680281662 z" fill="#e05d44" stroke="white" stroke-width="1" />
<path d="M 126.656633457 194.074968672 L 114.984950186 216.112453008 A 74.8125 74.8125 0 0 0 130.783794958 222.302473125 L 137.189196639 198.20164875 A 49.875 49.875 0 0 1 126.656633457 194.074968672 z" fill="#e05d44" stroke="white" stroke-width="1" />
<path d="M 114.984950186 216.112453008 L 103.313266914 238.149937344 A 99.75 99.75 0 0 0 113.611080122 242.875771922 L 122.708310091 219.656828941 A 74.8125 74.8125 0 0 1 114.984950186 216.112453008 z" fill="#e05d44" stroke="white" stroke-width="1" />
<path d="M 122.708310091 219.656828941 L 113.611080122 242.875771922 A 99.75 99.75 0 0 0 124.378393278 246.4032975 L 130.783794958 222.302473125 A 74.8125 74.8125 0 0 1 122.708310091 219.656828941 z" fill="#e05d44" stroke="white" stroke-width="1" />
<path d="M 137.189196639 198.20164875 L 130.783794958 222.302473125 A 74.8125 74.8125 0 0 0 140.310279014 224.182339296 L 143.54018601 199.454892864 A 49.875 49.875 0 0 1 137.189196639 198.20164875 z" fill="#e05d44" stroke="white" stroke-width="1" />
<path d="M 143.54018601 199.454892864 L 140.310279014 224.182339296 A 74.8125 74.8125 0 0 0 150.0 224.8125 L 150.0 199.875 A 49.875 49.875 0 0 1 143.54018601 199.454892864 z" fill="#e05d44" stroke="white" stroke-width="1" />
</svg>